<?xml version="1.0" encoding="utf-8"?><svg viewBox="0 0 149 56" xmlns="http://www.w3.org/2000/svg" xmlns:xlink="http://www.w3.org/1999/xlink"><style>:root>svg{display:none}:root>svg:target{display:block}</style><svg viewBox="0 0 20 19" id="arrow-left" xmlns="http://www.w3.org/2000/svg"><path d="M18.75 8.003H3.925l4.538-5.45a1.252 1.252 0 0 0-1.925-1.6l-6.25 7.5c-.043.06-.08.122-.113.187 0 .063 0 .1-.087.163a1.25 1.25 0 0 0-.088.45c.001.154.03.307.088.45 0 .062 0 .1.087.162.033.066.07.128.112.188l6.25 7.5a1.25 1.25 0 0 0 1.763.162 1.25 1.25 0 0 0 .162-1.762l-4.537-5.45H18.75a1.25 1.25 0 0 0 0-2.5Z"/></svg><svg viewBox="0 0 25 25" id="check" xmlns="http://www.w3.org/2000/svg"><path d="M12.121 2.55c-5.514 0-10 4.485-10 10 0 5.513 4.486 10 10 10s10-4.487 10-10c0-5.515-4.485-10-10-10Zm-1.998 14.412-3.006-2.999a1 1 0 1 1 1.412-1.415l1.591 1.588 4.588-4.587a1 1 0 1 1 1.414 1.414l-6 6Z"/></svg><svg viewBox="0 0 10 21" id="ic-facebook" xmlns="http://www.w3.org/2000/svg"><path d="M2.547 20.526v-9.631H0V7.427h2.547V4.465C2.547 2.137 4.05 0 7.517 0 8.922 0 9.96.135 9.96.135l-.082 3.238s-1.058-.01-2.213-.01c-1.25 0-1.45.576-1.45 1.532v2.532h3.763l-.164 3.468h-3.6v9.631H2.547Z"/></svg><svg viewBox="0 0 20 20" id="ic-instagram" xmlns="http://www.w3.org/2000/svg"><path d="M9.748 6.499A3.258 3.258 0 0 0 6.496 9.75a3.258 3.258 0 0 0 3.252 3.251 3.258 3.258 0 0 0 3.25-3.251 3.258 3.258 0 0 0-3.25-3.251Zm9.751 3.251c0-1.346.013-2.68-.063-4.025-.076-1.56-.432-2.946-1.573-4.088C16.719.493 15.336.14 13.775.064 12.428-.01 11.094.001 9.75.001 8.404 0 7.07-.011 5.725.064 4.165.14 2.78.496 1.637 1.637.493 2.781.14 4.164.064 5.725-.01 7.072.001 8.406.001 9.75c0 1.344-.012 2.68.063 4.025.076 1.56.432 2.946 1.573 4.088 1.144 1.144 2.527 1.497 4.088 1.573 1.347.076 2.681.063 4.025.063 1.346 0 2.68.013 4.025-.063 1.56-.076 2.946-.432 4.088-1.573 1.144-1.144 1.497-2.527 1.573-4.088.078-1.344.063-2.679.063-4.025Zm-9.751 5.003A4.996 4.996 0 0 1 4.745 9.75a4.996 4.996 0 0 1 5.003-5.003A4.996 4.996 0 0 1 14.75 9.75a4.996 4.996 0 0 1-5.002 5.003Zm5.207-9.042a1.167 1.167 0 0 1-1.168-1.169c0-.646.522-1.168 1.168-1.168a1.167 1.167 0 0 1 .827 1.995 1.167 1.167 0 0 1-.827.342Z"/></svg><svg viewBox="0 0 21 17" id="ic-twitter" xmlns="http://www.w3.org/2000/svg"><path d="M20.526 1.98a8.436 8.436 0 0 1-2.422.652 4.196 4.196 0 0 0 1.85-2.319 8.304 8.304 0 0 1-2.67 1.017A4.196 4.196 0 0 0 14.212 0a4.205 4.205 0 0 0-4.206 4.208c0 .326.04.652.104.965A11.954 11.954 0 0 1 1.436.77a4.177 4.177 0 0 0-.573 2.124c0 1.46.743 2.748 1.875 3.505a4.243 4.243 0 0 1-1.902-.535v.051a4.207 4.207 0 0 0 3.372 4.13 4.456 4.456 0 0 1-1.107.143c-.274 0-.533-.027-.795-.064a4.214 4.214 0 0 0 3.933 2.918 8.43 8.43 0 0 1-5.223 1.798c-.352 0-.678-.012-1.016-.051a11.911 11.911 0 0 0 6.46 1.887c7.737 0 11.97-6.41 11.97-11.972 0-.182 0-.365-.013-.547a9.06 9.06 0 0 0 2.11-2.176Z"/></svg><svg viewBox="0 0 25 25" id="jam-check" xmlns="http://www.w3.org/2000/svg"><path d="M11.396 17.28a.998.998 0 0 1-.707-.292l-4.242-4.243A1 1 0 1 1 7.86 11.33l3.535 3.535 6.365-6.363a1 1 0 1 1 1.415 1.414l-7.072 7.072a.997.997 0 0 1-.707.292Z"/></svg><svg viewBox="0 0 56 56" id="location" xmlns="http://www.w3.org/2000/svg"><rect x=".5" y=".049" width="55" height="55" rx="27.5"/><path d="M35 24.55a7.002 7.002 0 0 0-9.679-6.468A6.998 6.998 0 0 0 21 24.55c0 1.387.41 2.677 1.105 3.765h-.008C24.457 32.01 28 37.55 28 37.55l5.903-9.235h-.007A6.98 6.98 0 0 0 35 24.55Zm-7 3a3 3 0 1 1 0-6 3 3 0 0 1 0 6Z"/></svg><svg viewBox="0 0 149 37" id="logo" xmlns="http://www.w3.org/2000/svg"><path d="M47.04 25.116a.463.463 0 0 1-.34-.14.463.463 0 0 1-.14-.34v-13.04c0-.146.047-.26.14-.34a.463.463 0 0 1 .34-.14h1.88c.147 0 .26.047.34.14.093.08.14.194.14.34v11.12h6.34c.147 0 .267.047.36.14.093.093.14.207.14.34v1.44a.463.463 0 0 1-.14.34.487.487 0 0 1-.36.14h-8.7Zm13.921.2c-.68 0-1.307-.133-1.88-.4a3.575 3.575 0 0 1-1.34-1.12c-.32-.466-.48-.98-.48-1.54 0-.907.367-1.64 1.1-2.2.733-.56 1.74-.94 3.02-1.14l2.74-.4v-.42c0-.573-.147-1.006-.44-1.3-.293-.293-.76-.44-1.4-.44-.44 0-.793.08-1.06.24-.267.16-.487.327-.66.5l-.32.32c-.053.16-.153.24-.3.24h-1.56a.478.478 0 0 1-.32-.12.433.433 0 0 1-.12-.32c.013-.333.173-.707.48-1.12.32-.427.807-.793 1.46-1.1.653-.32 1.46-.48 2.42-.48 1.573 0 2.72.354 3.44 1.06.72.707 1.08 1.633 1.08 2.78v6.28a.463.463 0 0 1-.14.34.423.423 0 0 1-.34.14h-1.66a.463.463 0 0 1-.34-.14.463.463 0 0 1-.14-.34v-.78c-.293.427-.707.78-1.24 1.06-.533.267-1.2.4-2 .4Zm.68-1.92c.733 0 1.333-.24 1.8-.72.467-.48.7-1.173.7-2.08v-.4l-2 .32c-1.533.24-2.3.754-2.3 1.54 0 .427.173.76.52 1 .36.227.787.34 1.28.34Zm11.705 1.92c-1.013 0-1.86-.153-2.54-.46-.68-.307-1.186-.66-1.52-1.06-.32-.413-.48-.767-.48-1.06 0-.133.04-.24.12-.32.094-.08.2-.12.32-.12h1.64c.107 0 .2.053.28.16.067.053.214.18.44.38.24.2.507.36.8.48.307.107.64.16 1 .16.534 0 .967-.1 1.3-.3.334-.213.5-.513.5-.9 0-.267-.08-.48-.24-.64-.146-.173-.42-.326-.82-.46-.386-.146-.973-.306-1.76-.48-1.133-.24-1.973-.607-2.52-1.1-.533-.493-.8-1.146-.8-1.96 0-.533.16-1.033.48-1.5.32-.48.794-.866 1.42-1.16.64-.307 1.4-.46 2.28-.46.907 0 1.687.147 2.34.44.654.28 1.147.62 1.48 1.02.347.4.52.754.52 1.06a.44.44 0 0 1-.14.32c-.08.08-.18.12-.3.12h-1.5a.4.4 0 0 1-.34-.16 10.904 10.904 0 0 1-.46-.36 2.293 2.293 0 0 0-.68-.44c-.253-.106-.56-.16-.92-.16-.493 0-.873.107-1.14.32-.266.214-.4.494-.4.84 0 .24.06.44.18.6.134.16.394.314.78.46.387.133.967.273 1.74.42 2.4.467 3.6 1.514 3.6 3.14 0 .947-.413 1.713-1.24 2.3-.813.587-1.953.88-3.42.88Zm7.204-.2a.463.463 0 0 1-.34-.14.463.463 0 0 1-.14-.34v-13.24c0-.147.047-.26.14-.34a.463.463 0 0 1 .34-.14h1.68c.147 0 .26.047.34.14.094.08.14.194.14.34v13.24a.463.463 0 0 1-.14.34.424.424 0 0 1-.34.14h-1.68Zm9.313.2c-1.493 0-2.68-.426-3.56-1.28-.867-.853-1.327-2.067-1.38-3.64l-.02-.5c0-1.666.433-2.98 1.3-3.94.88-.96 2.093-1.44 3.64-1.44 1.587 0 2.807.48 3.66 1.44.867.96 1.3 2.24 1.3 3.84v.42a.463.463 0 0 1-.14.34.488.488 0 0 1-.36.14h-6.64v.16c.027.747.227 1.367.6 1.86.387.48.913.72 1.58.72.76 0 1.38-.306 1.86-.92.12-.146.213-.233.28-.26.067-.04.18-.06.34-.06h1.76c.12 0 .22.034.3.1.093.067.14.16.14.28 0 .32-.193.7-.58 1.14-.373.427-.913.8-1.62 1.12-.707.32-1.527.48-2.46.48Zm2.18-6.32v-.04c0-.787-.2-1.413-.6-1.88-.387-.48-.92-.72-1.6-.72s-1.213.24-1.6.72c-.387.467-.58 1.093-.58 1.88v.04h4.38Zm8.842 6.32c-1.013 0-1.86-.153-2.54-.46-.68-.307-1.186-.66-1.52-1.06-.32-.413-.48-.767-.48-1.06 0-.133.04-.24.12-.32.094-.08.2-.12.32-.12h1.64c.107 0 .2.053.28.16.067.053.214.18.44.38.24.2.507.36.8.48.307.107.64.16 1 .16.534 0 .967-.1 1.3-.3.334-.213.5-.513.5-.9 0-.267-.08-.48-.24-.64-.146-.173-.42-.326-.82-.46-.386-.146-.973-.306-1.76-.48-1.133-.24-1.973-.607-2.52-1.1-.533-.493-.8-1.146-.8-1.96 0-.533.16-1.033.48-1.5.32-.48.794-.866 1.42-1.16.64-.307 1.4-.46 2.28-.46.907 0 1.687.147 2.34.44.654.28 1.147.62 1.48 1.02.347.4.52.754.52 1.06 0 .12-.046.227-.14.32-.08.08-.18.12-.3.12h-1.5a.4.4 0 0 1-.34-.16 11.615 11.615 0 0 1-.46-.36 2.284 2.284 0 0 0-.68-.44c-.253-.106-.56-.16-.92-.16-.493 0-.873.107-1.14.32-.266.214-.4.494-.4.84 0 .24.06.44.18.6.134.16.394.314.78.46.387.133.967.273 1.74.42 2.4.467 3.6 1.514 3.6 3.14 0 .947-.413 1.713-1.24 2.3-.813.587-1.953.88-3.42.88Zm10.745-.2a.926.926 0 0 1-.56-.16.953.953 0 0 1-.28-.44l-4.04-12.8-.04-.18c0-.106.04-.2.12-.28a.44.44 0 0 1 .32-.14h2.62c.2 0 .36.06.48.18.133.107.22.227.26.36l2.72 9.04 2.74-9.04a.773.773 0 0 1 .24-.38c.133-.107.3-.16.5-.16h2.62c.12 0 .22.047.3.14.08.08.12.174.12.28a.76.76 0 0 1-.02.18l-4.06 12.8a.79.79 0 0 1-.28.44c-.134.107-.314.16-.54.16h-3.22Zm10.445 0a.534.534 0 0 1-.36-.14.534.534 0 0 1-.14-.36v-12.98c0-.146.047-.266.14-.36a.455.455 0 0 1 .36-.16h5.66c1.733 0 3.093.393 4.08 1.18.987.787 1.48 1.94 1.48 3.46s-.493 2.66-1.48 3.42c-.987.747-2.347 1.12-4.08 1.12h-2.28v4.32a.534.534 0 0 1-.14.36.486.486 0 0 1-.36.14h-2.88Zm5.56-7.68c.547 0 .973-.14 1.28-.42.32-.293.48-.72.48-1.28 0-.52-.147-.94-.44-1.26-.28-.32-.72-.48-1.32-.48h-2.24v3.44h2.24Zm8.014 7.68a.534.534 0 0 1-.36-.14.534.534 0 0 1-.14-.36v-12.98c0-.146.047-.266.14-.36a.455.455 0 0 1 .36-.16h2.26c.307 0 .533.127.68.38l4.72 7.46v-7.32c0-.146.047-.266.14-.36a.455.455 0 0 1 .36-.16h2.54c.147 0 .267.053.36.16.093.094.14.213.14.36v12.96a.56.56 0 0 1-.14.38.486.486 0 0 1-.36.14h-2.26c-.307 0-.533-.127-.68-.38l-4.7-7.16v7.04a.455.455 0 0 1-.16.36.486.486 0 0 1-.36.14h-2.54ZM31.147 13.648l-.021-.022a.013.013 0 0 1-.005-.005L17.502 0 3.88 13.62l-.004.006-.023.021a13.245 13.245 0 0 0 13.283 22c.238-.072.492-.072.73 0a13.243 13.243 0 0 0 17.04-14.242 13.246 13.246 0 0 0-3.759-7.757ZM8.723 22.63a.714.714 0 0 0-.209.505 13.219 13.219 0 0 0 1.965 6.802.258.258 0 0 1-.317.375 7.947 7.947 0 0 1-2.543-12.938L17.5 7.493l9.882 9.881a7.945 7.945 0 0 1-.007 11.231 7.922 7.922 0 0 1-2.536 1.707.26.26 0 0 1-.318-.375 13.22 13.22 0 0 0 1.966-6.802.713.713 0 0 0-.21-.505l-4.674-4.958a.26.26 0 0 0-.391.326c1.815 3.285.254 8.004-2.35 10.607l-.013.014a1.918 1.918 0 0 1-2.7 0l-.012-.014c-2.604-2.603-4.164-7.322-2.349-10.607a.258.258 0 0 0-.39-.326L8.722 22.63Z"/></svg><svg viewBox="0 0 55 56" id="server" xmlns="http://www.w3.org/2000/svg"><rect y=".049" width="55" height="55" rx="27.5"/><path d="M35.5 18.55h-16a2 2 0 0 0-2 2v4a2 2 0 0 0 2 2h16a2 2 0 0 0 2-2v-4a2 2 0 0 0-2-2Zm-5 4a1 1 0 1 1-2 0 1 1 0 0 1 2 0Zm4 0a1 1 0 1 1-2 0 1 1 0 0 1 2 0Zm1 6h-16a2 2 0 0 0-2 2v4a2 2 0 0 0 2 2h16a2 2 0 0 0 2-2v-4a2 2 0 0 0-2-2Zm-5 4a1 1 0 1 1-2 0 1 1 0 0 1 2 0Zm4 0a1 1 0 1 1-2 0 1 1 0 0 1 2 0Z"/></svg><svg viewBox="0 0 16 17" id="star" xmlns="http://www.w3.org/2000/svg"><path d="m14.19 6.418-3.968-.577-1.774-3.595a.502.502 0 0 0-.897 0L5.779 5.841l-3.967.577a.5.5 0 0 0-.277.853l2.87 2.799-.677 3.951a.5.5 0 0 0 .725.527L8 12.682l3.548 1.866a.5.5 0 0 0 .725-.527l-.678-3.951 2.87-2.799a.499.499 0 0 0-.276-.853Z"/></svg><svg viewBox="0 0 55 56" id="user" xmlns="http://www.w3.org/2000/svg"><rect y=".049" width="55" height="55" rx="27.5"/><path fill-rule="evenodd" clip-rule="evenodd" d="M27.5 26.35a3.6 3.6 0 1 0 0-7.2 3.6 3.6 0 0 0 0 7.2Zm-5.101 10.8c-1.822 0-3.357-1.532-2.66-3.215a8.401 8.401 0 0 1 15.522 0c.697 1.683-.838 3.214-2.66 3.214H22.4Z"/></svg></svg>